# xmcd CD database file
#
# Track frame offsets:
#	150
#	14408
#	34330
#	49450
#	63452
#	78702
#	92998
#	102343
#	117677
#	130836
#	147679
#	165922
#
# Disc length: 2985 seconds
#
# Revision: 0
# Processed by: cddbd v1.5.1PL2 Copyright (c) Steve Scherf et al.
# Submitted via: CDex 1.51
#
DISCID=b40ba70c
DTITLE=Wakefield - Which Side Are You On ?
DYEAR=2005
DGENRE=Punk Rock
TTITLE0=Without You (Which Side are You on ?)
TTITLE1=Take Off
TTITLE2=C'Mon Baby
TTITLE3=Quietly Complaining
TTITLE4=New Game
TTITLE5=Only One
TTITLE6=Clean 1145
TTITLE7=Hors d'oeuvres avant le coup d'etat (Picture Frame)
TTITLE8=Girl with a Beat
TTITLE9=After School Special
TTITLE10=Around
TTITLE11=Shrine
EXTD=YEAR: 2005
EXTT0=
EXTT1=
EXTT2=
EXTT3=
EXTT4=
EXTT5=
EXTT6=
EXTT7=
EXTT8=
EXTT9=
EXTT10=
EXTT11=
PLAYORDER=
